<mxfile host="app.diagrams.net" modified="2024-04-16T19:32:58.694Z" agent="Mozilla/5.0 (X11; Linux x86_64) AppleWebKit/537.36 (KHTML, like Gecko) Chrome/120.0.0.0 Safari/537.36" version="24.2.5" etag="c6k9tBUF3drfw_kuSAXZ" type="github">
  <diagram name="Page-1" id="U4SqymTSTekjcNoYwchu">
    <mxGraphModel>
      <root>
        <mxCell id="0" />
        <mxCell id="1" parent="0" />
      </root>
    </mxGraphModel>
  </diagram>
</mxfile>
